<svg xmlns="http://www.w3.org/2000/svg" width="300" height="180" viewBox="0 0 300 180" role="img" aria-label="Most Used Languages">
  <style>.title { font: 700 17px -apple-system, BlinkMacSystemFont, 'Segoe UI', sans-serif; fill: #C084FC; }.language { font: 12px -apple-system, BlinkMacSystemFont, 'Segoe UI', sans-serif; fill: #ECE6F0; }</style>
  <rect x="0.75" y="0.75" width="298.5" height="178.5" rx="5" fill="#0D0814" stroke="#3D105B" stroke-width="1.5" />
  <text x="20" y="39" class="title">Most Used Languages</text>
  <clipPath id="bar-clip"><rect x="20" y="55" width="260" height="8" rx="4" /></clipPath>
  <g clip-path="url(#bar-clip)"><rect x="20.00" y="0" width="129.00" height="8" fill="#A855F7" /><rect x="149.00" y="0" width="53.56" height="8" fill="#D7FF5F" /><rect x="202.56" y="0" width="34.90" height="8" fill="#FDE047" /><rect x="237.47" y="0" width="17.67" height="8" fill="#B779FF" /><rect x="255.14" y="0" width="12.71" height="8" fill="#FB7185" /><rect x="267.85" y="0" width="5.29" height="8" fill="#FF4D8D" /><rect x="273.14" y="0" width="5.23" height="8" fill="#8B5CF6" /><rect x="278.37" y="0" width="1.63" height="8" fill="#E879F9" /></g>
  <circle cx="20" cy="84" r="5" fill="#A855F7" />
      <text x="31" y="88" class="language">TypeScript 49.62%</text>
<circle cx="20" cy="105" r="5" fill="#D7FF5F" />
      <text x="31" y="109" class="language">Python 20.60%</text>
<circle cx="20" cy="126" r="5" fill="#FDE047" />
      <text x="31" y="130" class="language">JavaScript 13.42%</text>
<circle cx="20" cy="147" r="5" fill="#B779FF" />
      <text x="31" y="151" class="language">C++ 6.80%</text>
<circle cx="158" cy="84" r="5" fill="#FB7185" />
      <text x="169" y="88" class="language">Java 4.89%</text>
<circle cx="158" cy="105" r="5" fill="#FF4D8D" />
      <text x="169" y="109" class="language">Rust 2.04%</text>
<circle cx="158" cy="126" r="5" fill="#8B5CF6" />
      <text x="169" y="130" class="language">C 2.01%</text>
<circle cx="158" cy="147" r="5" fill="#E879F9" />
      <text x="169" y="151" class="language">Kotlin 0.63%</text>
</svg>